Coordinates
version=1
nRows=12
nColumns=46
inDegrees=yes

Units are S.I. units (second, meters, Newtons, ...)
Angles are in degrees.

endheader
time	pelvis_tilt	pelvis_list	pelvis_rotation	pelvis_tx	pelvis_ty	pelvis_tz	bb_angle	bb_tx	bb_ty	bb_tz	hip_flexion_r	hip_adduction_r	hip_rotation_r	knee_angle_r	knee_angle_r_beta	ankle_angle_r	subtalar_angle_r	mtp_angle_r	crank_angle_r	hip_flexion_l	hip_adduction_l	hip_rotation_l	knee_angle_l	knee_angle_l_beta	ankle_angle_l	subtalar_angle_l	mtp_angle_l	crank_angle_l	lumbar_extension	lumbar_bending	lumbar_rotation	arm_flex_r	arm_add_r	arm_rot_r	elbow_flex_r	pro_sup_r	wrist_flex_r	wrist_dev_r	arm_flex_l	arm_add_l	arm_rot_l	elbow_flex_l	pro_sup_l	wrist_flex_l	wrist_dev_l
      7.50000000	    -41.30813174	      4.94929726	     -9.28751137	      0.36722564	      1.08835979	     -0.24094169	      0.00000000	      0.50000000	      0.00000000	      0.25000000	     68.86566895	     -2.31822262	      2.53567898	     43.39788428	      0.75743597	     -9.13387519	     -2.74630334	      0.00000000	      0.00000000	     62.79887543	     -4.18476759	     -4.10070322	     76.16425876	      1.32931709	    -27.86842349	    -18.30159724	      0.00000000	      0.00000000	    -55.78207818	     -3.66805052	     -0.73025124	     51.97137778	    -26.32920487	     25.46656725	    115.70257865	     54.71972259	      0.00000000	      0.00000000	     30.44945978	    -30.71241191	      4.28009764	    120.81466554	     54.78045769	      0.00000000	      0.00000000
      7.50500000	    -41.31606112	      5.74168160	     -8.51618705	      0.36574297	      1.08687117	     -0.24109393	      0.00000000	      0.50000000	      0.00000000	      0.25000000	     67.69742924	     -3.40770121	      2.84707181	     40.90066555	      0.71385128	    -10.82972018	     -2.35288436	      0.00000000	      0.00000000	     64.48594483	     -3.32420002	     -4.31341509	     78.80619746	      1.37542762	    -26.92414070	    -17.98544663	      0.00000000	      0.00000000	    -55.49738817	     -4.06028310	     -1.07494564	     50.83042576	    -26.82120281	     23.93856989	    116.30585074	     54.61803300	      0.00000000	      0.00000000	     32.22452354	    -30.56281207	      6.09018048	    119.96437414	     54.74347235	      0.00000000	      0.00000000
      7.51000000	    -41.23127364	      6.32448497	     -7.77275737	      0.36431956	      1.08564446	     -0.24111511	      0.00000000	      0.50000000	      0.00000000	      0.25000000	     66.33208323	     -4.39303140	      2.77104990	     38.31264588	      0.66868182	    -12.96720400	     -2.20289113	      0.00000000	      0.00000000	     66.08285139	     -2.63473906	     -4.45490590	     81.40477566	      1.42078136	    -26.08345817	    -17.89200453	      0.00000000	      0.00000000	    -55.35538111	     -4.22658834	     -1.93853020	     50.65735578	    -26.92949922	     23.71416168	    116.32019386	     54.57940574	      0.00000000	      0.00000000	     32.91126288	    -30.74718487	      6.45697480	    119.86183071	     54.72540058	      0.00000000	      0.00000000
      7.51500000	    -41.09740929	      7.05705015	     -7.00833701	      0.36296448	      1.08442325	     -0.24138740	      0.00000000	      0.50000000	      0.00000000	      0.25000000	     64.98581144	     -5.55248355	      2.77512913	     35.87923396	      0.62621077	    -14.72966395	     -1.55405862	      0.00000000	      0.00000000	     67.60026629	     -1.80894391	     -4.79737316	     83.84570631	      1.46338364	    -25.29642013	    -17.98967972	      0.00000000	      0.00000000	    -55.21530232	     -4.45110161	     -3.08521690	     50.50318250	    -26.98352437	     23.66341527	    116.28448287	     54.55912799	      0.00000000	      0.00000000	     33.13149191	    -30.80611704	      6.99235687	    119.77677767	     54.75837424	      0.00000000	      0.00000000
      7.52000000	    -40.90102875	      7.32883796	     -6.30103086	      0.36154473	      1.08345732	     -0.24093857	      0.00000000	      0.50000000	      0.00000000	      0.25000000	     63.27186377	     -6.26374378	      2.53158093	     33.14849833	      0.57855044	    -17.16318922	     -1.86862662	      0.00000000	      0.00000000	     69.11933649	     -1.43147124	     -4.76218118	     86.33636436	      1.50685382	    -24.49407195	    -17.46941961	      0.00000000	      0.00000000	    -55.18656173	     -4.50278299	     -3.81796776	     50.31860136	    -26.95624075	     23.55821929	    115.94012380	     54.47966687	      0.00000000	      0.00000000	     33.83195198	    -31.36072118	      7.84376578	    119.76432480	     54.81958449	      0.00000000	      0.00000000
      7.52500000	    -40.49537280	      7.33991793	     -5.45612927	      0.36072263	      1.08302019	     -0.24076032	      0.00000000	      0.50000000	      0.00000000	      0.25000000	     61.11547501	     -6.99582316	      1.87916633	     30.32033489	      0.52918967	    -19.39737523	     -2.17165273	      0.00000000	      0.00000000	     70.36488919	     -1.03657378	     -4.53441221	     88.75259808	      1.54902506	    -23.43539138	    -17.10952779	      0.00000000	      0.00000000	    -55.41216608	     -4.25235779	     -4.43753664	     50.26906151	    -27.07695098	     23.43631974	    115.66682432	     54.41115367	      0.00000000	      0.00000000	     34.61632743	    -31.64680015	      8.55975016	    119.55911562	     54.82587254	      0.00000000	      0.00000000
      7.53000000	    -40.37407937	      7.98987251	     -4.66600350	      0.35895210	      1.08143056	     -0.24093747	      0.00000000	      0.50000000	      0.00000000	      0.25000000	     59.76608272	     -8.10582323	      1.68729695	     28.03598285	      0.48932021	    -21.47185468	     -1.86998682	      0.00000000	      0.00000000	     71.97781075	     -0.39691739	     -4.96526907	     91.10144960	      1.59002025	    -22.46455719	    -16.97553686	      0.00000000	      0.00000000	    -55.16307616	     -4.49071044	     -5.50326263	     49.95630747	    -27.36919694	     23.50754021	    115.47483707	     54.39407240	      0.00000000	      0.00000000	     35.29442885	    -31.75227541	      9.03819292	    119.33740262	     54.81654923	      0.00000000	      0.00000000
      7.53500000	    -40.03514369	      8.25949304	     -3.80714722	      0.35742979	      1.08032712	     -0.24136736	      0.00000000	      0.50000000	      0.00000000	      0.25000000	     57.96318064	     -9.08283742	      1.07712636	     25.64028275	      0.44750736	    -23.61509358	     -1.67122198	      0.00000000	      0.00000000	     73.36986651	      0.15170152	     -5.05205268	     93.42381071	      1.63055310	    -21.27570553	    -16.73375632	      0.00000000	      0.00000000	    -55.14346242	     -4.41340615	     -6.24943646	     49.81804043	    -27.77839635	     23.41772680	    115.17167450	     54.33760247	      0.00000000	      0.00000000	     36.35563885	    -31.79244480	      8.89831663	    119.05720112	     54.71160993	      0.00000000	      0.00000000
      7.54000000	    -39.84813924	      8.40549715	     -3.04953950	      0.35561887	      1.07877238	     -0.24093831	      0.00000000	      0.50000000	      0.00000000	      0.25000000	     56.32736193	     -9.78845744	      0.41286854	     23.35141412	      0.40755906	    -25.82850750	     -1.58960598	      0.00000000	      0.00000000	     74.94386705	      0.31777415	     -5.12080781	     95.74107678	      1.67099702	    -19.91338747	    -16.22131474	      0.00000000	      0.00000000	    -54.91867086	     -4.39050814	     -6.91793999	     49.66724403	    -28.00170499	     23.40980889	    114.74568385	     54.27086833	      0.00000000	      0.00000000	     37.05840426	    -31.87139391	      9.36525904	    118.63349045	     54.66008266	      0.00000000	      0.00000000
      7.54500000	    -39.48914018	      8.32122355	     -2.11059728	      0.35433624	      1.07768795	     -0.24122070	      0.00000000	      0.50000000	      0.00000000	      0.25000000	     54.39379282	    -10.59040010	     -0.81977052	     21.10365631	      0.36832829	    -27.99898247	     -1.15157300	      0.00000000	      0.00000000	     76.29807540	      0.63967362	     -4.96237146	     97.93152960	      1.70922763	    -18.42292216	    -15.71751924	      0.00000000	      0.00000000	    -54.87583470	     -4.01255532	     -7.50502059	     49.66081367	    -28.26568396	     23.37976813	    114.17610169	     54.17657740	      0.00000000	      0.00000000	     37.89338777	    -31.87285812	      9.99841230	    118.06565061	     54.58895436	      0.00000000	      0.00000000
      7.55000000	    -39.26286297	      8.41885604	     -1.27812882	      0.35246606	      1.07614009	     -0.24156508	      0.00000000	      0.50000000	      0.00000000	      0.25000000	     52.82728473	    -11.42774653	     -1.88885843	     19.19040594	      0.33493577	    -29.92354387	     -0.49012251	      0.00000000	      0.00000000	     77.85810797	      0.91618109	     -5.04075867	    100.02680435	      1.74579708	    -17.21678130	    -15.49455440	      0.00000000	      0.00000000	    -54.65808933	     -3.84211472	     -8.22470779	     49.46770832	    -28.46754063	     23.38004350	    113.71293388	     54.10583006	      0.00000000	      0.00000000	     38.43938531	    -31.90996954	     10.30080199	    117.72849323	     54.53656777	      0.00000000	      0.00000000
      7.55500000	    -39.08817591	      8.33284101	     -0.53259242	      0.35033405	      1.07439107	     -0.24204119	      0.00000000	      0.50000000	      0.00000000	      0.25000000	     51.32295709	    -12.05548957	     -3.16890430	     17.33685691	      0.30258524	    -31.97529512	      0.12959496	      0.00000000	      0.00000000	     79.51197876	      1.01032379	     -4.99867232	    102.07684855	      1.78157710	    -15.85233004	    -14.95924244	      0.00000000	      0.00000000	    -54.29099734	     -3.58876384	     -8.78065839	     49.58298420	    -28.69162928	     23.53219887	    113.03193460	     54.01215920	      0.00000000	      0.00000000	     38.99987975	    -31.88101300	     10.80074234	    117.25486232	     54.48062796	      0.00000000	      0.00000000
